PathFileType	4	(X/Y/Z)	C:/Users/opensim2020/Desktop/walking_exp_matlab/subject02_walking05_straight_04.trc	
DataRate	CameraRate	NumFrames	NumMarkers	Units	OrigDataRate	OrigDataStartFrame	OrigNumFrames	
100.00	100.00	7	42	mm	100.00	2791	220	
Frame#	Time	LFHD			RFHD			LBHD			RBHD			C7			T10			CLAV			STRN			RBAK			LSHO			LUPA			LELB			LFRM			LWRA			LWRB			LFIN			RSHO			RUPA			RELB			RFRM			RWRA			RWRB			RFIN			LASI			RASI			LPSI			RPSI			LTHI			LKNE			LTIB			LANK			LHEE			LTOE			RTHI			RKNE			RTIB			RANK			RHEE			RTOE			*39			*40			*41			
		X1	Y1	Z1	X2	Y2	Z2	X3	Y3	Z3	X4	Y4	Z4	X5	Y5	Z5	X6	Y6	Z6	X7	Y7	Z7	X8	Y8	Z8	X9	Y9	Z9	X10	Y10	Z10	X11	Y11	Z11	X12	Y12	Z12	X13	Y13	Z13	X14	Y14	Z14	X15	Y15	Z15	X16	Y16	Z16	X17	Y17	Z17	X18	Y18	Z18	X19	Y19	Z19	X20	Y20	Z20	X21	Y21	Z21	X22	Y22	Z22	X23	Y23	Z23	X24	Y24	Z24	X25	Y25	Z25	X26	Y26	Z26	X27	Y27	Z27	X28	Y28	Z28	X29	Y29	Z29	X30	Y30	Z30	X31	Y31	Z31	X32	Y32	Z32	X33	Y33	Z33	X34	Y34	Z34	X35	Y35	Z35	X36	Y36	Z36	X37	Y37	Z37	X38	Y38	Z38	X39	Y39	Z39	X40	Y40	Z40	X41	Y41	Z41	X42	Y42	Z42	

56	0.550	1479.24243	525.42426	1724.23828	1338.32373	542.13660	1700.08374	1504.50757	656.54730	1654.11658	1366.00452	685.02167	1629.43542	1439.21875	723.18274	1508.89441	1431.61462	772.18097	1231.27039	1447.17346	582.28003	1441.18042	1441.08057	528.34973	1271.84656	1379.81738	780.43317	1330.46179	1617.31543	647.82391	1487.03613	1709.16211	637.34430	1291.76404	1738.46045	610.23346	1155.33179	1756.31812	547.63647	1037.45654	1730.83484	442.51587	949.63281	1762.20276	486.12436	931.32220	1771.22656	439.86285	885.63373	1251.49463	655.54669	1470.20325	1174.81897	708.99664	1284.17310	1159.57556	714.16254	1138.91553	1135.06836	708.08856	1020.63275	1144.99756	681.05853	886.63824	1118.51172	730.74500	893.09729	1112.21875	707.37952	823.45587	1568.46729	546.63354	963.87189	1317.69910	519.69055	972.48615	1472.68860	745.90894	1014.76672	1355.79236	740.70465	1019.68097	1622.09607	675.64294	663.07477	1605.22620	736.95709	480.77634	1592.50635	890.00616	366.66470	1564.71887	1018.93256	185.07024	1505.57776	1048.06335	187.85405	1579.90955	955.03644	40.18289	1244.74866	527.59686	670.20990	1296.31360	482.66852	468.93390	1294.70129	501.80511	281.25162	1335.25793	505.49832	90.68481	1392.27124	539.49890	39.45988	1324.88477	352.78809	39.87358	1397.59106	634.50574	1789.79663						 
57	0.560	1477.93616	515.78577	1725.59656	1337.00610	532.34125	1701.36768	1503.10388	646.84381	1655.35645	1364.58105	675.23712	1630.56531	1437.71143	713.18555	1510.01611	1429.70313	761.76593	1232.27930	1446.01978	572.17834	1442.61267	1439.66272	517.89014	1273.34619	1378.16577	769.91760	1331.38293	1615.79199	638.31854	1488.03870	1706.95764	629.90179	1292.15320	1734.79651	605.16364	1154.90332	1752.65393	545.57758	1035.56128	1727.30933	442.61914	944.95129	1758.52222	486.61087	927.82166	1766.91943	441.58325	880.45624	1250.40332	645.53229	1471.83447	1173.13257	696.94458	1285.43994	1157.81873	701.10724	1140.03784	1132.62781	694.82471	1022.03851	1142.49622	666.79974	887.85864	1116.07629	716.45673	894.34277	1109.80334	693.16003	824.81281	1565.18896	535.82635	964.47137	1315.04077	509.41403	973.68213	1471.43506	735.82312	1015.71820	1354.49805	730.38367	1020.69073	1620.88599	659.12408	661.02856	1605.71643	716.11652	479.04645	1593.03479	870.14777	367.73602	1563.93262	1003.36957	191.47835	1503.85376	1031.82336	195.80647	1579.41724	946.55670	44.28551	1243.84766	518.46411	671.28711	1296.11304	477.62970	468.90265	1294.38147	498.88950	281.13376	1335.39795	504.88315	90.64262	1392.33875	539.43805	39.53387	1325.03027	352.27982	39.41426	1396.29248	624.99615	1791.13782						 
58	0.570	1476.90918	506.41437	1727.00391	1335.63574	522.55066	1702.57129	1501.80066	637.12262	1656.47351	1363.32910	665.36523	1631.64148	1436.14832	703.16443	1511.14087	1427.97351	751.60272	1233.39160	1444.83740	562.22906	1443.79626	1438.19397	507.61792	1274.58093	1376.41174	759.59949	1332.48254	1614.55811	628.97760	1488.99963	1704.85669	622.48639	1292.59412	1731.61450	600.33563	1154.83630	1749.59583	544.13434	1034.08704	1723.68176	442.98148	940.24432	1755.24463	487.60724	924.77185	1763.08289	444.13632	875.67871	1249.22766	635.16718	1473.33972	1171.19287	684.64722	1286.52100	1155.97827	688.07532	1141.16113	1130.56055	680.95416	1023.41705	1140.40002	652.14026	889.33557	1113.55786	701.66937	895.55634	1107.21948	678.18475	826.21521	1562.46692	525.55054	965.07587	1313.14661	499.51743	974.79364	1470.13257	725.97662	1016.68805	1353.06836	720.21515	1021.94342	1620.09863	642.34052	659.32062	1606.21277	694.93640	477.38708	1594.18665	849.75549	368.66711	1561.62305	987.63397	197.82657	1501.47205	1015.04675	203.08388	1580.97375	934.46344	49.51158	1243.29346	510.05869	672.27234	1295.56860	472.43784	468.99005	1293.62500	496.01556	281.16876	1335.38977	504.38736	90.64299	1392.31958	539.40289	39.56271	1325.13464	351.98804	39.14623	1394.96240	615.48889	1792.26001						 
59	0.580	1475.83813	496.92987	1728.68152	1334.54297	512.90295	1704.07373	1500.57239	627.47906	1657.62500	1362.08557	655.53259	1632.73169	1434.62354	693.24585	1512.34875	1426.31482	741.62616	1234.67249	1443.89111	552.35889	1445.16370	1437.24133	497.66232	1276.03821	1374.45386	749.26477	1333.79346	1613.30872	619.68292	1490.01392	1702.63330	615.05829	1292.77954	1728.35181	595.53375	1154.69458	1745.98071	542.40051	1032.40637	1720.45691	443.79889	936.01611	1752.00476	488.80560	921.83020	1759.00720	446.91498	870.95502	1247.87134	624.41577	1474.73071	1169.55774	672.71204	1287.53381	1153.91943	674.89093	1142.34338	1128.45557	666.80536	1024.69788	1138.14087	637.14313	890.81409	1111.30945	686.80151	896.87012	1104.63306	662.68085	827.60767	1560.35144	515.64917	965.70160	1311.47253	489.73932	975.51208	1468.71741	716.35962	1017.71234	1351.64209	710.33948	1023.30737	1619.66284	625.36438	658.35846	1606.65796	673.46033	476.02954	1595.15125	828.95673	370.43103	1558.80603	970.69891	203.91824	1498.45471	997.11267	208.79900	1582.81445	919.54053	55.39893	1242.90405	502.47815	672.76215	1295.22620	467.51361	469.02786	1292.73376	493.33768	281.10995	1335.40320	503.92685	90.71674	1392.24524	539.43512	39.58763	1325.16125	351.82370	38.98813	1393.77502	606.15594	1793.37524						 
60	0.590	1474.88855	487.42706	1730.33325	1333.54382	503.33063	1705.58032	1499.51172	617.82056	1658.77490	1361.08533	645.75452	1633.77844	1433.28931	683.37213	1513.64136	1424.62170	731.84839	1235.97681	1443.03271	542.56854	1446.40442	1436.06165	487.70499	1277.11145	1372.62744	739.25848	1335.19458	1612.30664	610.49866	1490.97961	1701.04272	608.12073	1293.34814	1724.81372	590.62402	1154.37842	1742.73718	541.07953	1031.09277	1717.16003	444.82452	931.72809	1748.72620	490.19327	918.93188	1755.18665	450.03275	866.37195	1246.89783	613.57440	1476.32251	1168.28247	661.19354	1288.67114	1151.99646	661.61346	1143.50403	1126.41443	652.61157	1026.05505	1135.67175	621.72607	892.28333	1108.92944	671.31006	897.94830	1102.14136	646.57025	829.13684	1558.97070	506.15552	966.50134	1310.16492	480.20432	976.02991	1467.25427	706.88904	1018.77100	1350.18250	700.69073	1024.76404	1619.51440	608.46210	658.34454	1606.84998	651.96820	475.34232	1594.60388	808.19623	372.73584	1555.99011	952.40479	209.35695	1494.81616	978.13959	212.86598	1584.30688	902.46301	61.63019	1242.16528	495.03754	673.31702	1294.43665	463.09940	468.74857	1291.75781	490.78290	281.19235	1335.23389	503.72302	90.94592	1392.20313	539.49384	39.60333	1325.18384	351.68964	38.84254	1392.82141	597.02966	1794.66992						 
61	0.600	1473.95972	478.11075	1731.94250	1332.84192	493.81610	1707.21277	1498.57263	608.18298	1660.00146	1360.09912	635.91443	1634.84180	1431.96777	673.55133	1515.01172	1423.01294	722.19598	1237.47034	1442.31067	532.89813	1447.65686	1435.50916	478.18893	1278.36682	1370.77063	729.38141	1336.90503	1611.43860	601.42578	1491.95068	1699.07837	600.98145	1293.65491	1721.28894	585.75275	1154.13354	1739.36279	539.56390	1029.67065	1714.07275	446.00394	927.72052	1745.52173	491.82727	916.21252	1751.37488	453.46661	862.02643	1245.79553	602.50299	1477.78174	1166.01794	648.15503	1289.81677	1150.13660	648.24390	1144.60901	1124.38135	638.19128	1027.46631	1133.65173	605.96478	894.00903	1106.73987	655.62091	899.14008	1099.54761	630.10925	830.71802	1558.25452	497.01822	967.50208	1309.17822	470.70099	976.42999	1465.62573	697.55621	1019.88025	1348.72449	691.26654	1026.24060	1619.64209	591.83032	658.97614	1606.78369	630.51801	475.45596	1592.91882	787.54535	375.79288	1553.17676	933.13269	213.77721	1491.53564	958.58954	215.95604	1585.50305	883.10193	66.58079	1241.93127	488.38110	674.03046	1293.49377	459.06015	468.64456	1290.94922	488.30695	281.21286	1334.83093	503.40967	91.01250	1392.12354	539.63519	39.61315	1324.89270	351.65796	39.13912	1391.70251	587.70880	1795.81812	-3356.89331	2845.73193	1033.93091			 
62	0.610	1473.20752	468.69861	1733.59741	1332.07471	484.21661	1708.78479	1497.72876	598.58148	1661.28796	1359.22754	626.14532	1636.02466	1430.73792	663.77136	1516.46350	1421.34973	712.65833	1238.99707	1441.66589	523.25928	1448.97083	1434.87170	468.73547	1279.52393	1368.75134	719.47437	1338.67078	1610.69458	592.40942	1492.93860	1697.74402	594.32324	1294.33997	1718.19543	581.00195	1154.18176	1736.45959	538.43927	1028.61707	1710.97388	447.42471	923.81793	1742.36243	493.64621	913.71185	1747.75244	457.18042	858.06372	1244.74792	591.40173	1479.37292	1164.33960	635.55969	1291.07800	1148.15320	634.79974	1145.82166	1122.34851	623.25006	1028.71460	1131.39001	589.89252	895.66455	1104.66431	639.63385	900.40234	1097.16797	613.09094	832.39288	1557.98987	488.22989	968.74225	1308.36279	461.46109	976.76263	1463.90417	688.40332	1021.04919	1347.18616	682.15393	1027.64233	1619.42834	574.98505	659.83405	1606.49353	609.28424	476.33099	1590.49219	766.42938	378.28836	1550.76599	912.71466	216.81853	1488.81885	938.17944	217.94810	1586.82642	862.09857	71.23379	1241.06079	481.57956	674.66479	1293.07935	455.87280	468.49988	1290.18005	485.97986	281.16049	1334.27588	503.17654	91.21276	1392.10681	539.74323	39.61881	1324.68896	351.72531	39.22116	1390.77661	578.42401	1797.10852						 
